<svg xmlns="http://www.w3.org/2000/svg" width="54" height="54" viewBox="0 0 54 54">
    <g fill="none" fill-rule="evenodd">
        <g>
            <g transform="translate(-427 -118) translate(429 120)">
                <circle cx="25" cy="25" r="20" fill="#3947A3"/>
                <g fill-rule="nonzero">
                    <g>
                        <path d="M0 0H24V24H0z" transform="translate(13 13)"/>
                        <path fill="#FFF" d="M14.77 2.77c.308 0 .596.153.767.41l1.572 2.358h3.199c1.474 0 2.68 1.153 2.764 2.607l.005.163v10.154c0 1.529-1.24 2.769-2.77 2.769H3.693c-1.53 0-2.769-1.24-2.769-2.77V8.309c0-1.53 1.24-2.77 2.77-2.77H6.89L8.463 3.18c.15-.224.389-.37.653-.404l.115-.007zM12 8.307c-2.549 0-4.615 2.066-4.615 4.615 0 2.55 2.066 4.615 4.615 4.615 2.549 0 4.615-2.066 4.615-4.615 0-2.549-2.066-4.615-4.615-4.615zm0 1.846c1.53 0 2.77 1.24 2.77 2.77 0 1.528-1.24 2.768-2.77 2.768s-2.77-1.24-2.77-2.769c0-1.53 1.24-2.77 2.77-2.77z" transform="translate(13 13)"/>
                    </g>
                </g>
                <circle cx="25" cy="25" r="26" stroke="#3947A3" stroke-width="2"/>
            </g>
        </g>
    </g>
</svg>
