<svg xmlns="http://www.w3.org/2000/svg" width="54" height="54" viewBox="0 0 54 54">
    <g fill="none" fill-rule="evenodd">
        <g>
            <g transform="translate(-719 -118) translate(721 120)">
                <circle cx="25" cy="25" r="20" fill="#3947A3"/>
                <g>
                    <path d="M0 0H26V26H0z" transform="translate(12 12)"/>
                    <path fill="#EEF0F7" d="M19.313 3.25c.552 0 1 .448 1 1V19.5H5.688V4.25c0-.552.447-1 1-1h12.625zm-2.726 5.065c-.243-.243-.637-.243-.88 0l-3.952 3.952-1.462-1.463c-.243-.243-.637-.243-.88 0l-.293.294c-.243.242-.243.637 0 .88l2.342 2.342c.078.078.183.122.293.122.11 0 .216-.044.294-.122l4.831-4.832c.243-.242.243-.636 0-.88z" transform="translate(12 12)"/>
                    <path fill="#EEF0F7" d="M3.063 17.063c.552 0 1 .447 1 1l-.001 3.062h17.875v-3.063c0-.552.448-1 1-1h.438c.552 0 1 .448 1 1v4.5c0 .553-.448 1-1 1h-.438c-.064 0-.126-.006-.187-.017v.017H3.25l.001-.017c-.061.011-.124.017-.188.017h-.438c-.552 0-1-.447-1-1v-4.5c0-.552.448-1 1-1h.438z" transform="translate(12 12)"/>
                </g>
                <circle cx="25" cy="25" r="26" stroke="#3947A3" stroke-width="2"/>
            </g>
        </g>
    </g>
</svg>
