<svg xmlns="http://www.w3.org/2000/svg" width="54" height="54" viewBox="0 0 54 54">
    <g fill="none" fill-rule="evenodd">
        <g>
            <g transform="translate(-573 -118) translate(575 120)">
                <circle cx="25" cy="25" r="20" fill="#CBD3E6"/>
                <g>
                    <path fill-rule="nonzero" d="M0 0H24V24H0z" transform="translate(13 13)"/>
                    <path fill="#EEF0F7" d="M11.212 10.05c-2.125-1.258-4.9-1.11-6.899.568-2.536 2.127-2.867 5.917-.74 8.453 2.128 2.535 5.918 2.867 8.454.74 1.999-1.678 2.626-4.385 1.757-6.697l3.332-2.796 2.57 3.064 3.065-2.57-2.571-3.065 1.532-1.286-2.571-3.064-7.929 6.653zm-1.757 6.696c-.842.707-2.11.596-2.817-.246-.707-.843-.596-2.111.246-2.818.843-.707 2.11-.596 2.818.246.707.843.596 2.111-.247 2.818z" transform="translate(13 13)"/>
                </g>
                <circle cx="25" cy="25" r="26" stroke="#CBD3E6" stroke-width="2"/>
            </g>
        </g>
    </g>
</svg>
