<svg xmlns="http://www.w3.org/2000/svg" width="54" height="54" viewBox="0 0 54 54">
    <g fill="none" fill-rule="evenodd">
        <g>
            <g transform="translate(-427 -118) translate(429 120)">
                <circle cx="25" cy="25" r="20" fill="#3947A3"/>
                <g fill-rule="nonzero">
                    <g>
                        <path d="M0 0H24V24H0z" transform="translate(13 13)"/>
                        <path fill="#FFF" d="M19.234 5.115L9.041 15.27l-3.352-3.34c-.668-.665-1.75-.665-2.419 0-.668.666-.668 1.745 0 2.41l4.561 4.544c.668.666 1.751.666 2.42 0l11.402-11.36c.668-.666.668-1.745 0-2.41-.668-.666-1.751-.666-2.419 0z" transform="translate(13 13)"/>
                    </g>
                </g>
                <circle cx="25" cy="25" r="26" stroke="#3947A3" stroke-width="2"/>
            </g>
        </g>
    </g>
</svg>
