<svg xmlns="http://www.w3.org/2000/svg" xmlns:xlink="http://www.w3.org/1999/xlink" width="196" height="198" viewBox="0 0 196 198">
    <defs>
        <filter id="6px1mp6hwa" width="176.7%" height="175.7%" x="-38.3%" y="-37.9%" filterUnits="objectBoundingBox">
            <feMorphology in="SourceAlpha" radius="2" result="shadowSpreadOuter1"/>
            <feOffset dy="8" in="shadowSpreadOuter1" result="shadowOffsetOuter1"/>
            <feGaussianBlur in="shadowOffsetOuter1" result="shadowBlurOuter1" stdDeviation="6"/>
            <feColorMatrix in="shadowBlurOuter1" result="shadowMatrixOuter1" values="0 0 0 0 0.509803922 0 0 0 0 0.533333333 0 0 0 0 0.580392157 0 0 0 0.24 0"/>
            <feOffset in="SourceAlpha" result="shadowOffsetOuter2"/>
            <feGaussianBlur in="shadowOffsetOuter2" result="shadowBlurOuter2" stdDeviation="2"/>
            <feColorMatrix in="shadowBlurOuter2" result="shadowMatrixOuter2" values="0 0 0 0 0.552941176 0 0 0 0 0.554771242 0 0 0 0 0.580392157 0 0 0 0.16 0"/>
            <feOffset in="SourceAlpha" result="shadowOffsetOuter3"/>
            <feGaussianBlur in="shadowOffsetOuter3" result="shadowBlurOuter3" stdDeviation="1"/>
            <feColorMatrix in="shadowBlurOuter3" result="shadowMatrixOuter3" values="0 0 0 0 0.552941176 0 0 0 0 0.554771242 0 0 0 0 0.580392157 0 0 0 0.12 0"/>
            <feMerge>
                <feMergeNode in="shadowMatrixOuter1"/>
                <feMergeNode in="shadowMatrixOuter2"/>
                <feMergeNode in="shadowMatrixOuter3"/>
                <feMergeNode in="SourceGraphic"/>
            </feMerge>
        </filter>
        <circle id="6rspk9iifb" cx="60" cy="61.182" r="60"/>
    </defs>
    <g fill="none" fill-rule="evenodd">
        <g>
            <g>
                <g>
                    <g filter="url(#6px1mp6hwa)" transform="translate(-502 -372) translate(348 363) translate(32 47) translate(160)">
                        <mask id="t9fzet9emc" fill="#fff">
                            <use xlink:href="#6rspk9iifb"/>
                        </mask>
                        <use fill="#FFF" xlink:href="#6rspk9iifb"/>
                        <g fill-rule="nonzero" mask="url(#t9fzet9emc)">
                            <g>
                                <path fill="#3C5EB2" d="M18.504 25.704v-4.392H6.588c.624-.864 1.344-1.62 2.16-2.268.816-.648 1.656-1.254 2.52-1.818.864-.564 1.722-1.134 2.574-1.71.852-.576 1.614-1.218 2.286-1.926.672-.708 1.212-1.518 1.62-2.43.408-.912.612-2.004.612-3.276 0-1.224-.234-2.328-.702-3.312-.468-.984-1.098-1.812-1.89-2.484C14.976 1.416 14.058.9 13.014.54 11.97.18 10.872 0 9.72 0 8.208 0 6.87.258 5.706.774c-1.164.516-2.13 1.236-2.898 2.16-.768.924-1.344 2.004-1.728 3.24C.696 7.41.528 8.748.576 10.188h4.896c0-.672.066-1.35.198-2.034.132-.684.354-1.308.666-1.872.312-.564.726-1.02 1.242-1.368.516-.348 1.146-.522 1.89-.522 1.104 0 2.01.342 2.718 1.026.708.684 1.062 1.638 1.062 2.862 0 .768-.174 1.452-.522 2.052-.348.6-.78 1.14-1.296 1.62-.516.48-1.086.918-1.71 1.314-.624.396-1.212.786-1.764 1.17-1.08.744-2.106 1.476-3.078 2.196-.972.72-1.818 1.506-2.538 2.358-.72.852-1.29 1.818-1.71 2.898C.21 22.968 0 24.24 0 25.704h18.504zm12.528.468c1.272 0 2.466-.216 3.582-.648 1.116-.432 2.1-1.152 2.952-2.16.852-1.008 1.524-2.358 2.016-4.05.492-1.692.738-3.798.738-6.318 0-2.448-.246-4.506-.738-6.174-.492-1.668-1.164-3.006-2.016-4.014C36.714 1.8 35.73 1.08 34.614.648 33.498.216 32.304 0 31.032 0c-1.248 0-2.43.216-3.546.648-1.116.432-2.094 1.152-2.934 2.16-.84 1.008-1.506 2.346-1.998 4.014-.492 1.668-.738 3.726-.738 6.174 0 2.52.246 4.626.738 6.318.492 1.692 1.158 3.042 1.998 4.05.84 1.008 1.818 1.728 2.934 2.16 1.116.432 2.298.648 3.546.648zm0-4.176c-1.032 0-1.824-.336-2.376-1.008-.552-.672-.954-1.482-1.206-2.43-.252-.948-.402-1.932-.45-2.952-.048-1.02-.072-1.89-.072-2.61 0-.432.006-.954.018-1.566.012-.612.054-1.242.126-1.89.072-.648.192-1.29.36-1.926.168-.636.402-1.206.702-1.71.3-.504.684-.912 1.152-1.224.468-.312 1.05-.468 1.746-.468s1.284.156 1.764.468c.48.312.876.72 1.188 1.224.312.504.546 1.074.702 1.71.156.636.276 1.278.36 1.926.084.648.132 1.278.144 1.89.012.612.018 1.134.018 1.566 0 .72-.024 1.59-.072 2.61-.048 1.02-.198 2.004-.45 2.952s-.66 1.758-1.224 2.43c-.564.672-1.374 1.008-2.43 1.008z" transform="translate(17.874 47.478)"/>
                                <path fill="#FF585E" d="M62.136 25.704v-4.392H50.22c.624-.864 1.344-1.62 2.16-2.268.816-.648 1.656-1.254 2.52-1.818.864-.564 1.722-1.134 2.574-1.71.852-.576 1.614-1.218 2.286-1.926.672-.708 1.212-1.518 1.62-2.43.408-.912.612-2.004.612-3.276 0-1.224-.234-2.328-.702-3.312-.468-.984-1.098-1.812-1.89-2.484C58.608 1.416 57.69.9 56.646.54 55.602.18 54.504 0 53.352 0c-1.512 0-2.85.258-4.014.774-1.164.516-2.13 1.236-2.898 2.16-.768.924-1.344 2.004-1.728 3.24-.384 1.236-.552 2.574-.504 4.014h4.896c0-.672.066-1.35.198-2.034.132-.684.354-1.308.666-1.872.312-.564.726-1.02 1.242-1.368.516-.348 1.146-.522 1.89-.522 1.104 0 2.01.342 2.718 1.026.708.684 1.062 1.638 1.062 2.862 0 .768-.174 1.452-.522 2.052-.348.6-.78 1.14-1.296 1.62-.516.48-1.086.918-1.71 1.314-.624.396-1.212.786-1.764 1.17-1.08.744-2.106 1.476-3.078 2.196-.972.72-1.818 1.506-2.538 2.358-.72.852-1.29 1.818-1.71 2.898-.42 1.08-.63 2.352-.63 3.816h18.504zm12.528.468c1.272 0 2.466-.216 3.582-.648 1.116-.432 2.1-1.152 2.952-2.16.852-1.008 1.524-2.358 2.016-4.05.492-1.692.738-3.798.738-6.318 0-2.448-.246-4.506-.738-6.174-.492-1.668-1.164-3.006-2.016-4.014-.852-1.008-1.836-1.728-2.952-2.16C77.13.216 75.936 0 74.664 0c-1.248 0-2.43.216-3.546.648-1.116.432-2.094 1.152-2.934 2.16-.84 1.008-1.506 2.346-1.998 4.014-.492 1.668-.738 3.726-.738 6.174 0 2.52.246 4.626.738 6.318.492 1.692 1.158 3.042 1.998 4.05.84 1.008 1.818 1.728 2.934 2.16 1.116.432 2.298.648 3.546.648zm0-4.176c-1.032 0-1.824-.336-2.376-1.008-.552-.672-.954-1.482-1.206-2.43-.252-.948-.402-1.932-.45-2.952-.048-1.02-.072-1.89-.072-2.61 0-.432.006-.954.018-1.566.012-.612.054-1.242.126-1.89.072-.648.192-1.29.36-1.926.168-.636.402-1.206.702-1.71.3-.504.684-.912 1.152-1.224.468-.312 1.05-.468 1.746-.468s1.284.156 1.764.468c.48.312.876.72 1.188 1.224.312.504.546 1.074.702 1.71.156.636.276 1.278.36 1.926.084.648.132 1.278.144 1.89.012.612.018 1.134.018 1.566 0 .72-.024 1.59-.072 2.61-.048 1.02-.198 2.004-.45 2.952s-.66 1.758-1.224 2.43c-.564.672-1.374 1.008-2.43 1.008z" transform="translate(17.874 47.478)"/>
                            </g>
                        </g>
                        <path fill="#4260AC" d="M0 85.182H120V121.182H0z" mask="url(#t9fzet9emc)"/>
                        <path fill="#FFF" fill-rule="nonzero" d="M60.151 96.216l1.858 4.13 4.758.384c.33.027.465.414.214.617l-3.609 2.937 1.082 4.368c.075.304-.276.543-.559.381l-4.089-2.316-4.089 2.316c-.284.16-.634-.078-.559-.38l1.082-4.37-3.61-2.936c-.25-.204-.117-.59.214-.617l4.758-.384 1.858-4.13c.13-.288.562-.288.691 0zM81.151 93.216l1.858 4.13 4.758.384c.33.027.465.414.214.617l-3.609 2.937 1.082 4.368c.075.304-.276.543-.559.381l-4.089-2.316-4.089 2.316c-.284.16-.634-.078-.559-.38l1.082-4.37-3.61-2.936c-.25-.204-.117-.59.214-.617l4.758-.384 1.858-4.13c.13-.288.562-.288.691 0zM39.151 93.216l1.858 4.13 4.758.384c.33.027.465.414.214.617l-3.609 2.937 1.082 4.368c.075.304-.276.543-.559.381l-4.089-2.316-4.089 2.316c-.284.16-.634-.078-.559-.38l1.082-4.37-3.61-2.936c-.25-.204-.117-.59.214-.617l4.758-.384 1.858-4.13c.13-.288.562-.288.691 0z" mask="url(#t9fzet9emc)"/>
                        <path fill="#F06464" d="M0 1.182H120V37.182H0z" mask="url(#t9fzet9emc)"/>
                        <path fill="#FFF" fill-rule="nonzero" d="M60.151 12.216l1.858 4.13 4.758.384c.33.027.465.414.214.617l-3.609 2.937 1.082 4.368c.075.304-.276.543-.559.381l-4.089-2.316-4.089 2.316c-.284.16-.634-.078-.559-.38l1.082-4.37-3.61-2.936c-.25-.204-.117-.59.214-.617l4.758-.384 1.858-4.13c.13-.288.562-.288.691 0zM81.151 15.216l1.858 4.13 4.758.384c.33.027.465.414.214.617l-3.609 2.937 1.082 4.368c.075.304-.276.543-.559.381l-4.089-2.316-4.089 2.316c-.284.16-.634-.078-.559-.38l1.082-4.37-3.61-2.936c-.25-.204-.117-.59.214-.617l4.758-.384 1.858-4.13c.13-.288.562-.288.691 0zM39.151 15.216l1.858 4.13 4.758.384c.33.027.465.414.214.617l-3.609 2.937 1.082 4.368c.075.304-.276.543-.559.381l-4.089-2.316-4.089 2.316c-.284.16-.634-.078-.559-.38l1.082-4.37-3.61-2.936c-.25-.204-.117-.59.214-.617l4.758-.384 1.858-4.13c.13-.288.562-.288.691 0z" mask="url(#t9fzet9emc)"/>
                    </g>
                </g>
            </g>
        </g>
    </g>
</svg>
