<svg xmlns="http://www.w3.org/2000/svg" xmlns:xlink="http://www.w3.org/1999/xlink" width="109" height="35" viewBox="0 0 109 35">
    <defs>
        <circle id="048qn4v55a" cx="16" cy="16.315" r="16"/>
    </defs>
    <g fill="none" fill-rule="evenodd">
        <g>
            <g>
                <text fill="#FFF" font-family="HelveticaNeue-Bold, Helvetica Neue" font-size="24" font-weight="bold" transform="translate(-88 -27) translate(88 27)">
                    <tspan x="44" y="23">VOTE</tspan>
                </text>
                <g transform="translate(-88 -27) translate(88 27) translate(0 2)">
                    <mask id="6m6bw6bm5b" fill="#fff">
                        <use xlink:href="#048qn4v55a"/>
                    </mask>
                    <use fill="#FFF" xlink:href="#048qn4v55a"/>
                    <g fill-rule="nonzero" mask="url(#6m6bw6bm5b)">
                        <g>
                            <path fill="#3C5EB2" d="M4.934 6.854v-1.17H1.757c.166-.231.358-.433.576-.606.217-.172.441-.334.672-.484.23-.15.459-.303.686-.456.227-.154.43-.325.61-.514.179-.189.323-.405.432-.648.109-.243.163-.534.163-.874 0-.326-.062-.62-.187-.883-.125-.262-.293-.483-.504-.662C3.994.377 3.749.24 3.47.144 3.192.048 2.9 0 2.592 0c-.403 0-.76.069-1.07.206-.31.138-.568.33-.773.576-.205.247-.359.535-.461.864-.102.33-.147.687-.134 1.07h1.305c0-.178.018-.36.053-.542.035-.182.094-.348.178-.499.083-.15.193-.272.33-.365.138-.092.306-.139.505-.139.294 0 .536.091.725.274.188.182.283.437.283.763 0 .205-.047.387-.14.547-.092.16-.207.304-.345.432-.138.128-.29.245-.456.35-.166.106-.323.21-.47.313-.288.198-.562.393-.821.585-.26.192-.485.402-.677.629-.192.227-.344.485-.456.773C.056 6.125 0 6.464 0 6.854h4.934zm3.341.125c.34 0 .658-.057.955-.173.298-.115.56-.307.788-.576.227-.268.406-.628.537-1.08.131-.45.197-1.012.197-1.684 0-.653-.066-1.202-.197-1.647-.131-.445-.31-.801-.537-1.07C9.79.48 9.528.288 9.23.173 8.933.058 8.614 0 8.275 0c-.333 0-.648.058-.945.173-.298.115-.559.307-.783.576-.224.269-.401.625-.533 1.07-.13.445-.196.994-.196 1.647 0 .672.065 1.233.196 1.684.132.452.31.812.533 1.08.224.27.485.461.783.576.297.116.612.173.945.173zm0-1.113c-.275 0-.486-.09-.633-.27-.148-.178-.255-.394-.322-.647s-.107-.515-.12-.787c-.013-.272-.02-.504-.02-.696 0-.116.002-.255.006-.418.003-.163.014-.331.033-.504.02-.173.051-.344.096-.514.045-.17.107-.321.187-.456.08-.134.183-.243.308-.326.124-.083.28-.125.465-.125.186 0 .343.042.47.125.129.083.234.192.317.326.084.135.146.287.188.456.041.17.073.341.096.514.022.173.035.34.038.504.003.163.005.302.005.418 0 .192-.007.424-.02.696-.012.272-.052.534-.12.787-.067.253-.175.469-.326.648-.15.179-.366.269-.648.269z" transform="translate(4.766 12.66)"/>
                            <path fill="#FF585E" d="M16.57 6.854v-1.17h-3.178c.166-.231.358-.433.576-.606.218-.172.442-.334.672-.484.23-.15.46-.303.686-.456.228-.154.43-.325.61-.514s.323-.405.432-.648c.109-.243.163-.534.163-.874 0-.326-.062-.62-.187-.883-.125-.262-.293-.483-.504-.662-.211-.18-.456-.317-.734-.413C14.827.048 14.534 0 14.227 0c-.403 0-.76.069-1.07.206-.31.138-.568.33-.773.576-.205.247-.358.535-.46.864-.103.33-.148.687-.135 1.07h1.305c0-.178.018-.36.053-.542.035-.182.095-.348.178-.499.083-.15.193-.272.331-.365.138-.092.306-.139.504-.139.294 0 .536.091.725.274.189.182.283.437.283.763 0 .205-.046.387-.14.547-.092.16-.207.304-.345.432-.137.128-.29.245-.456.35-.166.106-.323.21-.47.313-.288.198-.562.393-.821.585-.26.192-.485.402-.677.629-.192.227-.344.485-.456.773-.112.288-.168.627-.168 1.017h4.935zm3.34.125c.34 0 .658-.057.956-.173.297-.115.56-.307.787-.576.227-.268.406-.628.537-1.08.132-.45.197-1.012.197-1.684 0-.653-.065-1.202-.197-1.647-.13-.445-.31-.801-.537-1.07-.227-.269-.49-.461-.787-.576C20.568.058 20.25 0 19.91 0c-.332 0-.648.058-.945.173-.298.115-.559.307-.783.576-.224.269-.401.625-.532 1.07-.132.445-.197.994-.197 1.647 0 .672.065 1.233.197 1.684.13.452.308.812.532 1.08.224.27.485.461.783.576.297.116.613.173.945.173zm0-1.113c-.275 0-.486-.09-.633-.27-.147-.178-.255-.394-.322-.647s-.107-.515-.12-.787c-.013-.272-.019-.504-.019-.696 0-.116.002-.255.005-.418.003-.163.014-.331.033-.504.02-.173.052-.344.096-.514.045-.17.108-.321.188-.456.08-.134.182-.243.307-.326.125-.083.28-.125.465-.125.186 0 .343.042.47.125.129.083.234.192.318.326.083.135.145.287.187.456.041.17.073.341.096.514.022.173.035.34.038.504.003.163.005.302.005.418 0 .192-.006.424-.02.696-.012.272-.052.534-.12.787-.066.253-.175.469-.326.648-.15.179-.366.269-.648.269z" transform="translate(4.766 12.66)"/>
                        </g>
                    </g>
                    <path fill="#4260AC" d="M0 22.715H32V32.315H0z" mask="url(#6m6bw6bm5b)"/>
                    <path fill="#FFF" fill-rule="nonzero" d="M16.04 25.657l.496 1.102 1.269.102c.088.008.123.11.057.165l-.963.783.289 1.165c.02.08-.074.145-.15.102l-1.09-.618-1.09.618c-.076.042-.17-.021-.15-.102l.29-1.165-.963-.783c-.067-.054-.032-.158.057-.165l1.268-.102.496-1.102c.034-.076.15-.076.184 0zM21.64 24.857l.496 1.102 1.269.102c.088.008.123.11.057.165l-.963.783.289 1.165c.02.08-.074.145-.15.102l-1.09-.618-1.09.618c-.076.042-.17-.021-.15-.102l.29-1.165-.963-.783c-.067-.054-.032-.158.057-.165l1.268-.102.496-1.102c.034-.076.15-.076.184 0zM10.44 24.857l.496 1.102 1.269.102c.088.008.123.11.057.165l-.963.783.289 1.165c.02.08-.074.145-.15.102l-1.09-.618-1.09.618c-.076.042-.17-.021-.15-.102l.29-1.165-.963-.783c-.067-.054-.032-.158.057-.165l1.268-.102.496-1.102c.034-.076.15-.076.184 0z" mask="url(#6m6bw6bm5b)"/>
                    <path fill="#F06464" d="M0 0.315H32V9.915H0z" mask="url(#6m6bw6bm5b)"/>
                    <path fill="#FFF" fill-rule="nonzero" d="M16.04 3.257l.496 1.102 1.269.102c.088.008.123.11.057.165l-.963.783.289 1.165c.02.08-.074.145-.15.102l-1.09-.618-1.09.618c-.076.042-.17-.021-.15-.102l.29-1.165-.963-.783c-.067-.054-.032-.158.057-.165l1.268-.102.496-1.102c.034-.076.15-.076.184 0zM21.64 4.057l.496 1.102 1.269.102c.088.008.123.11.057.165l-.963.783.289 1.165c.02.08-.074.145-.15.102l-1.09-.618-1.09.618c-.076.042-.17-.021-.15-.102l.29-1.165-.963-.783c-.067-.054-.032-.158.057-.165l1.268-.102.496-1.102c.034-.076.15-.076.184 0zM10.44 4.057l.496 1.102 1.269.102c.088.008.123.11.057.165l-.963.783.289 1.165c.02.08-.074.145-.15.102l-1.09-.618-1.09.618c-.076.042-.17-.021-.15-.102l.29-1.165-.963-.783c-.067-.054-.032-.158.057-.165L9.76 5.16l.496-1.102c.034-.076.15-.076.184 0z" mask="url(#6m6bw6bm5b)"/>
                </g>
            </g>
        </g>
    </g>
</svg>
